<svg width="167" height="31" viewBox="0 0 167 31" fill="none" xmlns="http://www.w3.org/2000/svg">
<path d="M21.5389 0.511719H7.99439C3.58621 0.511719 0 4.09606 0 8.50194V22.0396C0 26.4453 3.58621 30.0296 7.99439 30.0296H21.5391C25.9471 30.0296 29.5333 26.4453 29.5333 22.0396V8.50194C29.5333 4.09606 25.9471 0.511719 21.5389 0.511719V0.511719ZM27.8019 22.0396C27.8019 25.4911 24.9924 28.2991 21.5389 28.2991H7.99439C4.54089 28.2991 1.73137 25.4911 1.73137 22.0396V8.50194C1.73137 5.05025 4.54089 2.24218 7.99439 2.24218H21.5391C24.9924 2.24218 27.8019 5.05025 27.8019 8.50194V22.0396Z" fill="white"/>
<path d="M14.7666 7.1996C10.3138 7.1996 6.69128 10.8202 6.69128 15.2707C6.69128 19.7211 10.3138 23.3417 14.7666 23.3417C19.2194 23.3417 22.8418 19.7211 22.8418 15.2707C22.8418 10.8202 19.2194 7.1996 14.7666 7.1996V7.1996ZM14.7666 21.6113C11.2687 21.6113 8.42265 18.767 8.42265 15.2707C8.42265 11.7746 11.2687 8.93006 14.7666 8.93006C18.2647 8.93006 21.1105 11.7746 21.1105 15.2707C21.1105 18.767 18.2647 21.6113 14.7666 21.6113V21.6113Z" fill="white"/>
<path d="M23.035 4.33318C21.7191 4.33318 20.6488 5.40312 20.6488 6.71808C20.6488 8.03327 21.7191 9.10322 23.035 9.10322C24.3508 9.10322 25.4213 8.03327 25.4213 6.71808C25.4213 5.40289 24.3508 4.33318 23.035 4.33318ZM23.035 7.37252C22.674 7.37252 22.3802 7.07886 22.3802 6.71808C22.3802 6.35708 22.674 6.06364 23.035 6.06364C23.3961 6.06364 23.69 6.35708 23.69 6.71808C23.69 7.07886 23.3961 7.37252 23.035 7.37252Z" fill="white"/>
<path d="M79.3116 4.38203C79.0175 4.03843 78.53 3.91101 78.0965 4.06392L50.5633 13.6091C50.0132 13.8009 49.6271 14.266 49.5554 14.8229C49.4845 15.3772 49.7391 15.915 50.2168 16.2245L54.1524 18.8019C54.5337 19.0517 55.024 19.0785 55.4323 18.8718L63.9694 14.5529L57.3158 19.3191C57.0035 19.5429 56.8168 19.8999 56.8168 20.2738V24.6887C56.8168 25.1441 57.0772 25.5613 57.4963 25.7779C57.916 25.9945 58.423 25.973 58.8217 25.7208L61.8118 23.8181L64.7522 25.7414C65.0098 25.9108 65.3166 26 65.6263 26C65.7309 26 65.836 25.9897 65.9395 25.969C66.3524 25.8864 66.7177 25.6417 66.9419 25.2977L79.3988 5.59207C79.6413 5.21267 79.6065 4.72716 79.3116 4.38203V4.38203ZM65.5605 24.2271L62.5155 22.2352C62.3037 22.0964 62.0596 22.0269 61.8157 22.0269C61.5771 22.0269 61.3382 22.0935 61.1291 22.2266L58.5765 23.851V20.523L70.3253 12.1069C70.85 11.731 70.9821 11.0469 70.6324 10.5157C70.2825 9.98451 69.582 9.80503 69.0029 10.0981L54.8873 17.2391L51.5585 15.0591L76.9128 6.26937L65.5605 24.2271Z" fill="white"/>
<path d="M124.908 4.25024C122.203 1.54644 118.607 0.0576172 114.781 0.0576172C114.781 0.0576172 114.78 0.0576172 114.78 0.0576172C112.888 0.0578424 111.044 0.424024 109.299 1.14625C107.555 1.86848 105.992 2.91275 104.654 4.25024C101.949 6.95382 100.459 10.5485 100.459 14.372C100.459 16.6522 101.01 18.9182 102.053 20.9372L99.6455 27.8109C99.4759 28.2957 99.596 28.8227 99.9596 29.186C100.214 29.4404 100.549 29.5756 100.893 29.5756C101.041 29.5756 101.19 29.5508 101.335 29.4999L108.213 27.094C110.233 28.1365 112.5 28.6867 114.781 28.6867C118.607 28.6867 122.203 27.1976 124.908 24.4941C127.613 21.7905 129.103 18.1958 129.103 14.3723C129.103 10.5485 127.614 6.95382 124.908 4.25024V4.25024ZM123.683 23.2698C121.306 25.6467 118.144 26.9553 114.781 26.9553C112.724 26.9553 110.68 26.4468 108.871 25.4843C108.543 25.31 108.155 25.28 107.807 25.4019L101.559 27.5875L103.746 21.3426C103.868 20.9942 103.838 20.6066 103.663 20.2789C102.7 18.471 102.191 16.4284 102.191 14.372C102.191 11.0111 103.501 7.85103 105.879 5.47445C108.256 3.0981 111.418 1.78921 114.78 1.78876H114.781C118.144 1.78876 121.306 3.09765 123.683 5.47445C126.062 7.85103 127.371 11.0109 127.371 14.372C127.371 17.7332 126.062 20.8933 123.683 23.2698V23.2698Z" fill="white"/>
<path d="M120.104 15.6507C119.445 14.9922 118.373 14.9922 117.714 15.6507L116.993 16.3709C115.204 15.3965 113.756 13.9493 112.781 12.161L113.502 11.4407C114.161 10.7823 114.161 9.71073 113.502 9.05223L111.56 7.11143C110.901 6.45293 109.829 6.45293 109.17 7.11143L107.617 8.66398C106.727 9.55331 106.683 11.0822 107.492 12.9692C108.194 14.6076 109.48 16.4083 111.112 18.0395C112.744 19.6706 114.546 20.9556 116.185 21.6578C117.082 22.042 117.898 22.2337 118.603 22.2337C119.382 22.2337 120.025 21.9997 120.492 21.5328L122.046 19.98V19.9803C122.365 19.6611 122.541 19.2371 122.541 18.786C122.541 18.3347 122.365 17.9106 122.046 17.5917L120.104 15.6507ZM119.267 20.3086C119.013 20.5624 118.233 20.6514 116.867 20.0667C115.426 19.4492 113.817 18.2944 112.337 16.8152C110.857 15.3361 109.702 13.7281 109.084 12.2873C108.499 10.9228 108.588 10.142 108.842 9.88819L110.365 8.36536L112.247 10.2465L111.345 11.1482C110.937 11.5558 110.839 12.174 111.1 12.6866C112.286 15.0107 114.142 16.8657 116.468 18.0509C116.981 18.3124 117.599 18.2142 118.007 17.8064L118.909 16.9049L120.791 18.786L119.267 20.3086Z" fill="white"/>
<path d="M159.62 30H154.821C154.019 30 153.367 29.3472 153.367 28.5448V17.7086H150.567C149.766 17.7086 149.114 17.0556 149.114 16.2534V11.61C149.114 10.8076 149.766 10.1548 150.567 10.1548H153.367V7.82959C153.367 5.52406 154.09 3.56255 155.458 2.15744C156.832 0.745926 158.752 0 161.011 0L164.671 0.0059509C165.471 0.00732422 166.122 0.660095 166.122 1.46118V5.7724C166.122 6.57486 165.471 7.22763 164.669 7.22763L162.205 7.22855C161.453 7.22855 161.262 7.37938 161.221 7.42561C161.154 7.50229 161.073 7.71904 161.073 8.31757V10.1546H164.484C164.741 10.1546 164.99 10.218 165.203 10.3374C165.664 10.5954 165.951 11.0831 165.951 11.6103L165.949 16.2536C165.949 17.0556 165.297 17.7084 164.496 17.7084H161.073V28.5448C161.073 29.3472 160.421 30 159.62 30V30ZM155.124 28.2413H159.316V16.9212C159.316 16.3854 159.752 15.9496 160.287 15.9496H164.192L164.194 11.9135H160.287C159.752 11.9135 159.316 11.4777 159.316 10.9419V8.31757C159.316 7.63046 159.386 6.84906 159.904 6.26175C160.53 5.55176 161.517 5.46982 162.205 5.46982L164.366 5.4689V1.76422L161.01 1.75873C157.38 1.75873 155.124 4.08508 155.124 7.82959V10.9419C155.124 11.4775 154.688 11.9135 154.153 11.9135H150.87V15.9496H154.153C154.688 15.9496 155.124 16.3854 155.124 16.9212V28.2413ZM164.668 1.76468H164.668H164.668Z" fill="white"/>
</svg>
